<?xml version="1.0" standalone="no"?>
<!DOCTYPE svg PUBLIC "-//W3C//DTD SVG 20010904//EN"
 "http://www.w3.org/TR/2001/REC-SVG-20010904/DTD/svg10.dtd">
<svg version="1.0" xmlns="http://www.w3.org/2000/svg"
 width="1080.000000pt" height="1028.000000pt" viewBox="0 0 1080.000000 1028.000000"
 preserveAspectRatio="xMidYMid meet">

<g transform="translate(0.000000,1028.000000) scale(0.100000,-0.100000)"
fill="#000000" stroke="#FFFFFF">
<path d="M4905 8403 c-32 -5 -75 -38 -75 -58 0 -7 -13 -29 -30 -50 -16 -21
-30 -48 -30 -61 0 -12 -4 -25 -9 -29 -5 -3 -13 -31 -17 -63 -3 -31 -11 -62
-16 -69 -5 -6 -13 -24 -17 -40 -5 -18 -16 -29 -32 -33 -19 -5 -23 -11 -21 -34
4 -27 -16 -67 -49 -99 -18 -17 -18 -19 3 -58 19 -36 20 -45 9 -76 -11 -29 -10
-37 3 -52 16 -17 15 -19 -8 -35 -14 -9 -33 -16 -42 -16 -8 0 -29 -12 -45 -27
-28 -26 -30 -33 -28 -94 1 -36 -1 -71 -5 -78 -12 -18 -58 -13 -82 10 -28 26
-51 19 -59 -18 -10 -46 -20 -58 -53 -60 -29 -3 -37 2 -70 42 -18 21 -31 19
-25 -5 3 -11 13 -20 22 -20 13 0 14 -2 1 -9 -18 -12 -30 -5 -30 19 0 10 -14
32 -30 50 -25 27 -35 31 -60 27 -16 -4 -32 -2 -35 3 -8 14 -49 12 -63 -2 -7
-7 -9 -27 -5 -53 5 -40 4 -42 -23 -48 -36 -7 -42 -1 -26 23 7 11 12 22 12 25
0 8 -74 -47 -78 -58 -14 -30 -56 -67 -72 -62 -11 3 -20 0 -24 -10 -3 -8 -13
-15 -21 -15 -15 0 -15 -1 -1 -16 9 -8 16 -29 16 -45 0 -22 -5 -29 -20 -29 -11
0 -23 7 -26 15 -8 20 -34 19 -49 -1 -9 -14 -16 -14 -34 -5 -12 7 -48 12 -79
12 -31 -1 -73 1 -92 2 -44 4 -60 -1 -60 -19 0 -8 -6 -14 -12 -14 -19 -1 -55
-34 -59 -55 -2 -10 -19 -23 -38 -30 -19 -6 -37 -20 -42 -31 -4 -11 -21 -34
-38 -51 -20 -20 -29 -37 -25 -48 4 -9 -2 -25 -14 -38 -11 -12 -29 -40 -40 -62
-11 -22 -34 -56 -52 -75 -42 -46 -98 -131 -136 -205 -21 -40 -38 -61 -53 -63
l-21 -3 -2 363 -3 363 -27 3 c-20 2 -30 10 -34 27 -13 54 -34 60 -191 60
l-145 0 -24 -28 c-22 -25 -24 -37 -24 -122 0 -75 -3 -93 -13 -89 -20 7 -40
-21 -32 -46 3 -11 15 -20 26 -20 19 0 19 -8 17 -287 -3 -424 -6 -493 -24 -493
-19 0 -19 -73 1 -90 11 -9 15 -34 15 -92 0 -73 -2 -80 -19 -75 -20 5 -51 -9
-51 -23 0 -13 37 -13 45 0 3 6 10 10 15 10 4 0 8 -149 8 -330 l0 -330 -25 -20
c-29 -23 -54 -12 -46 19 3 13 -2 20 -18 24 -32 8 -41 -1 -34 -33 6 -27 4 -30
-37 -40 -24 -6 -75 -27 -115 -46 -39 -19 -88 -38 -107 -41 -25 -4 -36 -11 -36
-22 0 -16 -68 -91 -82 -91 -7 0 -45 31 -86 68 -18 18 -27 21 -36 12 -8 -8 -1
-20 28 -46 21 -19 43 -34 49 -34 6 0 7 -3 4 -7 -4 -3 0 -14 9 -24 15 -17 15
-21 0 -53 -23 -49 -57 -157 -52 -165 3 -4 7 -40 10 -80 5 -67 8 -77 48 -128
65 -84 70 -89 108 -108 19 -10 45 -26 56 -37 19 -17 63 -32 174 -57 68 -16
120 -42 120 -61 0 -14 9 -20 33 -22 l32 -3 3 -394 c2 -384 2 -394 -18 -408
-20 -14 -29 -50 -10 -38 5 3 16 3 22 -1 9 -6 5 -10 -12 -15 l-25 -6 32 -19
c22 -13 33 -27 33 -42 0 -37 25 -87 54 -105 16 -11 26 -27 26 -41 0 -34 24
-36 433 -36 l357 0 0 165 c0 165 0 165 -24 171 -15 3 -27 17 -34 40 -10 33 -9
35 11 29 31 -9 96 -91 103 -130 5 -28 17 -55 25 -55 17 0 9 -19 -11 -25 -27
-9 -25 -18 7 -32 35 -17 43 -16 43 2 0 19 5 19 35 -1 14 -9 25 -25 25 -36 0
-11 8 -22 19 -25 10 -2 24 -15 31 -29 7 -13 22 -26 33 -30 36 -11 90 -54 110
-87 11 -17 28 -38 38 -45 10 -7 16 -19 13 -27 -3 -8 2 -35 11 -59 12 -32 15
-58 11 -90 -9 -55 11 -98 51 -115 16 -6 42 -31 58 -56 23 -34 38 -46 65 -51
95 -17 125 -30 141 -64 31 -63 112 -74 238 -29 69 24 98 24 137 0 17 -10 46
-22 65 -26 19 -5 28 -10 22 -12 -21 -8 -14 -23 10 -23 26 0 54 16 45 25 -4 4
-21 14 -40 23 -22 11 -34 25 -36 42 -4 24 -3 24 32 -9 32 -31 39 -33 78 -28
24 4 53 9 65 13 16 4 24 0 35 -22 8 -18 25 -31 47 -36 41 -11 179 -150 188
-190 7 -36 17 -35 55 2 16 17 37 30 47 30 19 0 61 51 61 74 0 19 27 28 50 16
27 -14 40 -12 40 6 0 10 7 14 23 12 17 -2 23 -11 25 -36 4 -36 17 -43 25 -12
3 14 14 20 31 20 31 0 30 1 11 -38 -17 -34 -17 -152 0 -153 5 0 17 26 26 58 9
32 23 72 30 89 11 28 10 36 -4 58 -16 24 -16 29 -2 56 8 16 15 35 15 42 0 8
16 22 36 33 34 18 36 18 46 1 8 -14 17 -16 45 -11 32 6 39 3 64 -27 15 -18 28
-42 29 -53 0 -11 4 -26 9 -34 14 -22 60 2 72 38 18 51 62 50 64 -2 3 -64 7
-77 33 -107 38 -43 67 -38 67 10 0 31 -3 35 -28 38 -19 2 -31 11 -38 29 -13
34 -2 46 35 38 56 -11 89 -10 94 3 3 10 -3 13 -19 11 -13 -2 -30 0 -37 5 -7 4
-29 8 -48 8 -19 0 -34 5 -34 10 0 6 6 8 14 5 8 -3 22 0 32 7 15 12 20 10 35
-8 17 -21 18 -21 25 -1 4 11 14 28 22 38 13 15 13 19 -1 35 -19 21 -22 48 -7
57 5 3 27 1 49 -5 28 -7 65 -35 133 -100 128 -123 148 -127 148 -24 0 36 5 55
18 66 54 48 138 62 182 31 14 -10 37 -16 53 -14 15 1 34 -2 41 -8 10 -9 15 -8
19 3 3 8 15 12 30 9 14 -3 35 1 48 8 13 7 32 12 42 10 10 -1 25 6 32 15 10 15
16 16 28 6 12 -10 17 -10 23 -1 4 7 0 17 -9 24 -37 27 -11 54 27 30 24 -16 25
-16 41 14 12 24 22 31 44 31 16 0 34 6 40 14 16 19 64 30 91 21 18 -6 20 -12
15 -37 -8 -32 17 -71 39 -62 23 9 66 -15 76 -42 6 -14 16 -24 23 -21 12 4 13
18 1 100 -9 71 9 87 100 87 52 0 78 5 96 17 14 10 48 20 75 23 46 5 50 7 53
32 2 17 15 36 33 48 34 25 35 33 10 69 -12 17 -18 36 -14 49 3 12 2 30 -2 39
-5 10 -7 27 -7 38 1 11 -9 28 -23 38 -14 10 -25 13 -25 7 0 -5 -4 -10 -10 -10
-14 0 -12 74 2 88 9 9 9 12 0 12 -7 0 -12 9 -12 20 0 24 22 26 40 5 7 -8 9
-15 6 -15 -4 0 -2 -9 4 -20 6 -11 19 -20 30 -20 10 0 21 -4 24 -9 3 -4 26 -14
50 -21 37 -10 46 -17 51 -41 l7 -29 169 0 169 0 1 343 c1 188 3 405 4 482 1
77 3 202 4 278 l1 137 37 0 c37 0 37 0 14 16 -17 12 -21 22 -16 41 4 17 0 32
-10 43 -14 16 -15 24 -4 59 13 43 25 52 36 26 3 -9 -2 -24 -12 -35 -19 -21
-11 -44 12 -36 39 15 43 -7 42 -240 0 -215 -1 -224 -20 -224 -24 0 -24 -18 0
-44 19 -20 20 -43 27 -376 3 -195 10 -363 15 -372 5 -9 24 -21 43 -28 26 -8
35 -18 40 -41 l6 -29 167 2 168 3 3 463 2 464 45 -4 c24 -1 45 1 46 6 0 6 -20
21 -45 34 l-46 24 2 272 c3 289 2 281 51 261 33 -14 17 15 -17 32 l-35 16 -4
1111 c-4 1212 -3 1183 -61 1274 -36 56 -111 129 -159 154 -35 19 -58 23 -133
23 -85 0 -95 -2 -165 -38 -41 -20 -78 -37 -83 -37 -6 0 -23 12 -39 28 -27 26
-32 27 -157 30 l-128 4 -32 -29 c-27 -25 -33 -38 -37 -84 -3 -32 -11 -59 -20
-66 -14 -11 -14 -15 1 -37 35 -54 13 -100 -45 -94 -42 4 -57 28 -42 67 13 36
2 51 -39 51 -18 0 -31 6 -35 18 -8 22 -23 32 -48 31 -14 0 -16 -2 -5 -6 22 -8
92 -84 85 -91 -3 -4 -9 -2 -13 4 -4 6 -17 16 -29 23 -13 6 -23 18 -23 25 0 18
-25 27 -37 15 -12 -12 -156 73 -238 142 -33 28 -93 66 -132 86 -40 20 -73 42
-73 49 0 17 -55 74 -72 74 -7 0 -26 14 -42 30 -28 29 -29 29 -67 13 -32 -12
-45 -13 -69 -3 -16 6 -34 9 -40 5 -6 -4 -23 -8 -39 -10 -22 -3 -31 2 -40 21
-10 22 -15 25 -44 19 -42 -10 -52 -16 -37 -25 7 -4 9 -13 5 -20 -6 -9 -9 -9
-15 1 -6 9 -12 10 -22 2 -9 -8 -28 -8 -68 2 -30 7 -67 16 -82 19 -33 8 -35 24
-8 68 26 43 25 58 -4 58 -38 0 -48 22 -41 84 7 51 5 55 -19 71 -28 19 -56 14
-56 -8 0 -10 -16 -16 -47 -20 -26 -3 -52 -12 -58 -21 -7 -9 -23 -16 -36 -16
-35 0 -52 -14 -45 -37 4 -12 -1 -27 -15 -41 -16 -18 -27 -21 -54 -16 -19 3
-35 1 -39 -5 -9 -14 -58 -14 -91 1 -28 13 -29 16 -15 52 7 18 5 35 -5 60 -20
46 -19 54 5 58 35 5 27 22 -14 29 -41 7 -55 20 -58 57 -4 52 -2 56 22 62 18 4
25 13 25 30 0 20 -4 24 -23 22 -30 -4 -52 14 -52 44 0 14 -18 62 -40 108 -22
46 -40 95 -40 109 0 20 -6 28 -25 33 -13 3 -29 12 -36 20 -14 18 -40 18 -33 1
3 -9 -6 -12 -33 -9 -49 4 -72 -10 -54 -32 14 -16 9 -20 -21 -17 -10 1 -18 -4
-18 -12 0 -8 -8 -21 -17 -28 -15 -12 -16 -12 -11 3 4 10 1 19 -9 22 -22 9 -28
0 -14 -18 7 -8 9 -21 5 -27 -5 -9 -1 -10 16 -6 17 4 20 3 11 -6 -6 -6 -11 -19
-11 -30 0 -10 -4 -16 -10 -12 -5 3 -7 12 -4 19 3 8 1 17 -5 21 -6 3 -11 15
-11 27 0 17 -3 18 -14 9 -12 -10 -13 -8 -9 9 4 13 0 26 -8 31 -20 13 -31 11
-22 -3 12 -21 15 -58 3 -58 -5 0 -10 12 -10 26 0 19 -4 25 -15 20 -10 -4 -14
1 -12 17 2 18 -4 23 -28 25 -16 1 -41 3 -56 5 -18 1 -25 8 -25 22 1 16 -6 20
-32 21 -18 0 -38 6 -44 12 -7 7 -14 11 -17 11 -4 -1 -19 -4 -36 -6z m-10 -113
c3 -5 4 -10 1 -10 -2 0 -12 -3 -20 -6 -12 -5 -15 -2 -10 10 7 18 20 21 29 6z
m431 -29 c1 -12 -1 -19 -5 -15 -3 3 -6 9 -6 12 0 4 -4 13 -9 21 -6 9 -5 12 5
9 8 -3 15 -15 15 -27z m-466 -16 c0 -8 -4 -15 -10 -15 -5 0 -10 7 -10 15 0 8
5 15 10 15 6 0 10 -7 10 -15z m350 -15 c0 -5 -2 -10 -4 -10 -3 0 -8 5 -11 10
-3 6 -1 10 4 10 6 0 11 -4 11 -10z m-596 -739 c3 -5 -1 -11 -9 -14 -9 -4 -12
-1 -8 9 6 16 10 17 17 5z m73 -76 c7 -19 5 -20 -29 -29 -23 -5 -28 -3 -28 13
0 30 46 43 57 16z m-93 -71 c9 -25 7 -34 -8 -34 -19 0 -28 14 -20 34 8 20 20
20 28 0z m80 0 c3 -9 6 -27 6 -40 0 -19 -5 -24 -24 -24 -14 0 -28 5 -31 10 -3
6 4 10 16 10 18 0 21 5 17 30 -5 32 6 41 16 14z m73 -20 c-3 -3 -12 -4 -19 -1
-8 3 -5 6 6 6 11 1 17 -2 13 -5z m-37 -54 c0 -5 -7 -10 -16 -10 -8 0 -12 5 -9
10 3 6 10 10 16 10 5 0 9 -4 9 -10z m-191 -55 c1 -5 -6 -2 -15 7 -10 9 -13 21
-8 29 5 9 9 8 15 -7 4 -10 8 -23 8 -29z m-869 -135 c0 -15 -26 -23 -41 -14 -9
5 -7 10 7 15 27 11 34 10 34 -1z m-1220 -24 c0 -3 -4 -8 -10 -11 -5 -3 -10 -1
-10 4 0 6 5 11 10 11 6 0 10 -2 10 -4z m5110 -80 c0 -24 -16 -43 -26 -33 -8 7
7 57 17 57 5 0 9 -11 9 -24z m550 0 c9 -11 11 -123 9 -453 -2 -241 -5 -448 -7
-461 -4 -19 -13 -10 -56 55 l-51 78 0 365 c0 330 2 369 17 392 10 15 28 29 40
31 13 2 26 5 29 6 4 0 12 -6 19 -13z m-60 -912 c0 -2 -7 -4 -15 -4 -8 0 -15 4
-15 10 0 5 7 7 15 4 8 -4 15 -8 15 -10z m14 -39 c7 -19 -5 -19 -30 0 -19 14
-19 14 2 15 12 0 24 -7 28 -15z m26 -111 c0 -6 -11 -21 -25 -34 -28 -26 -35
-9 -10 24 19 25 19 36 0 36 -16 0 -20 12 -8 24 8 8 42 -32 43 -50z m-5 -138
c-5 -61 -4 -74 9 -79 25 -10 22 -134 -4 -165 -11 -13 -25 -20 -31 -16 -6 3
-15 1 -19 -6 -5 -9 -9 -9 -14 -1 -4 6 -2 11 5 11 9 0 9 3 0 14 -7 8 -14 33
-16 55 -4 35 0 47 26 76 l31 35 -23 47 c-27 55 -26 71 3 95 32 28 39 13 33
-66z m-20 -712 c14 -9 25 -22 25 -30 0 -19 -64 9 -68 30 -4 20 12 20 43 0z
m-5970 -74 c-3 -5 -10 -10 -16 -10 -5 0 -9 5 -9 10 0 6 7 10 16 10 8 0 12 -4
9 -10z m6005 -10 c0 -5 -8 -13 -17 -19 -17 -9 -16 -11 1 -30 25 -28 18 -33
-33 -25 -38 6 -41 9 -41 40 0 26 5 33 23 37 41 8 67 7 67 -3z m-6010 -52 c0
-5 -4 -8 -10 -8 -5 0 -10 10 -10 23 0 18 2 19 10 7 5 -8 10 -18 10 -22z m-35
4 c-3 -3 -11 0 -18 7 -9 10 -8 11 6 5 10 -3 15 -9 12 -12z m95 8 c0 -5 -4 -10
-9 -10 -6 0 -13 5 -16 10 -3 6 1 10 9 10 9 0 16 -4 16 -10z m-123 -35 c0 -8
-4 -12 -9 -9 -5 3 -6 10 -3 15 9 13 12 11 12 -6z m129 -9 c0 -15 -5 -21 -10
-16 -5 5 -6 16 -3 24 9 23 15 19 13 -8z m-86 -21 c0 -19 -4 -35 -9 -35 -5 0
-8 8 -6 18 2 9 4 25 4 35 2 32 11 17 11 -18z m40 24 c-12 -9 -13 -12 -1 -16
11 -5 11 -7 0 -14 -12 -7 -12 -12 -1 -30 7 -11 11 -23 9 -26 -10 -10 -26 35
-23 63 5 36 4 34 19 34 8 0 7 -4 -3 -11z m41 -56 c13 -15 12 -15 -8 -4 -24 12
-29 21 -14 21 5 0 15 -7 22 -17z m-101 -28 c0 -5 -5 -3 -10 5 -5 8 -10 20 -10
25 0 6 5 3 10 -5 5 -8 10 -19 10 -25z m-35 -5 c3 -5 -1 -10 -9 -10 -9 0 -16 5
-16 10 0 6 4 10 9 10 6 0 13 -4 16 -10z m6047 -15 c-2 -14 1 -39 8 -56 10 -23
10 -33 1 -42 -8 -8 -11 -5 -11 15 0 17 -9 32 -26 43 l-26 17 23 23 c31 31 37
31 31 0z m48 -195 c0 -5 -5 -10 -11 -10 -5 0 -7 5 -4 10 3 6 8 10 11 10 2 0 4
-4 4 -10z m-5995 -51 c10 -15 -1 -23 -20 -15 -9 3 -13 10 -10 16 8 13 22 13
30 -1z m42 -35 c-3 -3 -12 -4 -19 -1 -8 3 -5 6 6 6 11 1 17 -2 13 -5z m838
-191 c4 -17 2 -23 -8 -23 -16 0 -30 37 -20 53 7 11 19 -2 28 -30z m78 10 c-7
-2 -21 -2 -30 0 -10 3 -4 5 12 5 17 0 24 -2 18 -5z m7 -82 c0 -11 -4 -23 -10
-26 -5 -3 -10 -1 -10 4 0 6 -10 11 -22 11 -23 1 -23 1 2 15 34 19 40 18 40 -4z
m-119 -82 c16 -8 19 -16 13 -47 -6 -34 -27 -61 -46 -62 -10 0 -11 104 -1 113
8 9 11 9 34 -4z m204 1 c-3 -5 -13 -10 -21 -10 -8 0 -12 5 -9 10 3 6 13 10 21
10 8 0 12 -4 9 -10z m-189 -144 c41 -9 76 -46 64 -66 -5 -8 -10 -28 -10 -43 0
-24 7 -31 45 -48 52 -23 57 -42 15 -64 -44 -23 -48 -55 -12 -93 38 -41 77 -43
86 -6 10 38 31 23 32 -23 l0 -41 -133 -1 c-109 -1 -133 2 -133 13 0 8 9 18 20
21 11 3 20 15 20 25 0 10 12 28 28 40 34 27 44 62 25 89 -18 26 -33 26 -66 1
-14 -11 -28 -20 -31 -20 -3 0 -6 55 -6 121 0 96 3 119 13 111 6 -5 26 -13 43
-16z m4584 -507 c0 -6 -4 -7 -10 -4 -5 3 -10 11 -10 16 0 6 5 7 10 4 6 -3 10
-11 10 -16z m0 -169 c0 -5 -7 -10 -16 -10 -8 0 -12 5 -9 10 3 6 10 10 16 10 5
0 9 -4 9 -10z m-3940 -30 c0 -5 -7 -10 -16 -10 -8 0 -12 5 -9 10 3 6 10 10 16
10 5 0 9 -4 9 -10z m30 -32 c0 -5 -4 -8 -10 -8 -5 0 -10 10 -10 23 0 18 2 19
10 7 5 -8 10 -18 10 -22z m3772 -300 c-12 -12 -72 -1 -72 13 0 5 13 9 29 9 17
0 33 6 38 13 5 9 9 7 11 -7 2 -10 -1 -23 -6 -28z m68 32 c0 -5 -4 -10 -10 -10
-5 0 -10 5 -10 10 0 6 5 10 10 10 6 0 10 -4 10 -10z m-208 -32 c-7 -7 -12 -8
-12 -2 0 14 12 26 19 19 2 -3 -1 -11 -7 -17z m-617 -128 c-3 -5 -10 -10 -16
-10 -5 0 -9 5 -9 10 0 6 7 10 16 10 8 0 12 -4 9 -10z m-436 -77 c2 -2 -5 -3
-17 -3 -14 0 -22 6 -22 16 0 14 3 15 18 3 9 -7 19 -15 21 -16z m117 -2 c-4 -5
-13 -8 -22 -4 -11 4 -12 8 -3 20 14 16 36 2 25 -16z m-951 -31 c3 -5 1 -10 -4
-10 -6 0 -11 5 -11 10 0 6 2 10 4 10 3 0 8 -4 11 -10z m810 -29 c7 -12 -12
-24 -25 -16 -11 7 -4 25 10 25 5 0 11 -4 15 -9z m25 -56 c0 -8 -9 -15 -20 -15
-11 0 -23 0 -27 -1 -4 0 -9 4 -11 9 -3 9 6 13 51 21 4 0 7 -6 7 -14z m-905
-35 c3 -5 1 -10 -4 -10 -6 0 -11 5 -11 10 0 6 2 10 4 10 3 0 8 -4 11 -10z
m925 -44 c0 -8 -5 -18 -11 -22 -14 -8 -33 11 -25 25 10 16 36 13 36 -3z
m-1130 -11 c0 -8 -4 -15 -10 -15 -5 0 -7 7 -4 15 4 8 8 15 10 15 2 0 4 -7 4
-15z m168 -4 c3 -8 -1 -12 -9 -9 -7 2 -15 10 -17 17 -3 8 1 12 9 9 7 -2 15
-10 17 -17z m-158 -56 c0 -9 -6 -12 -15 -9 -8 4 -12 10 -9 15 8 14 24 10 24
-6z m-47 -12 c-7 -2 -19 -2 -25 0 -7 3 -2 5 12 5 14 0 19 -2 13 -5z"/>
<path d="M5250 8310 c0 -5 5 -10 10 -10 6 0 10 5 10 10 0 6 -4 10 -10 10 -5 0
-10 -4 -10 -10z"/>
<path d="M5940 8154 c0 -9 5 -14 12 -12 18 6 21 28 4 28 -9 0 -16 -7 -16 -16z"/>
<path d="M5770 8080 c-27 -21 -22 -42 13 -64 32 -20 81 29 61 62 -16 24 -45
25 -74 2z"/>
<path d="M6235 7920 c-5 -9 10 -50 19 -50 2 0 9 7 16 15 11 13 10 14 -5 9 -15
-6 -17 -3 -13 14 6 22 -6 30 -17 12z"/>
<path d="M5818 7893 c12 -2 32 -2 45 0 12 2 2 4 -23 4 -25 0 -35 -2 -22 -4z"/>
<path d="M5938 7893 c12 -2 32 -2 45 0 12 2 2 4 -23 4 -25 0 -35 -2 -22 -4z"/>
<path d="M4521 7836 c-13 -15 -4 -26 21 -26 21 0 24 25 4 33 -8 3 -19 0 -25
-7z"/>
<path d="M4317 7812 c-26 -29 -22 -45 11 -37 35 8 46 20 39 39 -8 21 -30 20
-50 -2z"/>
<path d="M4160 7520 c0 -5 5 -10 10 -10 6 0 10 5 10 10 0 6 -4 10 -10 10 -5 0
-10 -4 -10 -10z"/>
<path d="M2632 7358 c5 -15 28 -18 29 -3 0 6 -7 12 -17 13 -10 3 -15 -1 -12
-10z"/>
<path d="M2400 6771 c0 -12 5 -21 10 -21 6 0 10 6 10 14 0 8 -4 18 -10 21 -5
3 -10 -3 -10 -14z"/>
<path d="M2194 5629 c-8 -14 11 -33 25 -25 6 4 11 11 11 16 0 13 -29 20 -36 9z"/>
<path d="M2281 5504 c-26 -19 -26 -28 1 -64 27 -38 38 -37 65 2 25 35 23 42
-16 63 -25 12 -31 12 -50 -1z"/>
<path d="M1578 5235 c-6 -28 8 -43 24 -27 11 11 2 52 -12 52 -4 0 -10 -11 -12
-25z"/>
<path d="M1570 4840 c0 -5 4 -10 9 -10 6 0 13 5 16 10 3 6 -1 10 -9 10 -9 0
-16 -4 -16 -10z"/>
<path d="M8660 4731 c0 -6 5 -13 10 -16 6 -4 8 -10 5 -15 -9 -15 23 -31 75
-37 42 -5 52 -3 48 8 -2 7 -19 16 -37 20 -18 4 -39 16 -47 28 -15 21 -54 29
-54 12z"/>
<path d="M8860 4646 c0 -10 9 -16 21 -16 24 0 21 23 -4 28 -10 2 -17 -3 -17
-12z"/>
<path d="M2244 3809 c-18 -20 -18 -20 9 -14 23 6 27 4 27 -13 0 -11 6 -23 13
-25 8 -4 4 -12 -13 -26 -33 -27 -7 -27 31 0 35 25 36 42 4 74 -30 30 -46 31
-71 4z"/>
<path d="M3361 3454 c0 -11 3 -14 6 -6 3 7 2 16 -1 19 -3 4 -6 -2 -5 -13z"/>
<path d="M3410 3200 c0 -5 5 -10 10 -10 6 0 10 5 10 10 0 6 -4 10 -10 10 -5 0
-10 -4 -10 -10z"/>
<path d="M7721 3094 c0 -11 3 -14 6 -6 3 7 2 16 -1 19 -3 4 -6 -2 -5 -13z"/>
<path d="M3546 2893 c-11 -11 -6 -23 9 -23 8 0 15 4 15 9 0 13 -16 22 -24 14z"/>
<path d="M6555 2631 c-6 -11 9 -23 19 -14 9 9 7 23 -3 23 -6 0 -12 -4 -16 -9z"/>
<path d="M6917 2524 c51 -61 81 -89 89 -82 7 8 -96 122 -115 127 -8 2 4 -19
26 -45z"/>
<path d="M7160 2491 c0 -5 5 -13 10 -16 6 -3 10 -2 10 4 0 5 -4 13 -10 16 -5
3 -10 2 -10 -4z"/>
<path d="M5711 2404 c0 -11 3 -14 6 -6 3 7 2 16 -1 19 -3 4 -6 -2 -5 -13z"/>
<path d="M5195 2378 c-3 -18 -7 -49 -8 -68 -1 -19 -5 -40 -9 -45 -4 -6 -2 -17
3 -25 8 -13 10 -13 19 0 5 8 10 27 10 42 0 15 5 30 10 33 6 3 10 26 10 51 0
53 -24 61 -35 12z"/>
<path d="M3766 2334 l-29 -26 36 -36 c36 -36 36 -36 58 -17 39 36 43 54 18 81
-28 30 -47 30 -83 -2z"/>
<path d="M3984 2285 c-16 -34 -16 -37 1 -55 25 -27 57 -25 86 6 22 23 23 27 8
52 -10 19 -24 28 -46 30 -28 3 -34 -1 -49 -33z"/>
<path d="M4389 2284 c-5 -15 -7 -29 -4 -32 8 -8 55 40 49 49 -11 18 -35 8 -45
-17z"/>
<path d="M4884 2254 c-8 -20 -14 -52 -12 -72 l4 -37 18 39 c10 22 20 55 23 73
8 45 -14 43 -33 -3z"/>
<path d="M4590 2238 c-11 -24 -20 -54 -20 -68 0 -14 -7 -34 -15 -44 -20 -27
-19 -36 5 -36 13 0 22 9 26 28 4 15 18 51 31 80 24 51 25 82 3 82 -6 0 -20
-19 -30 -42z"/>
<path d="M5166 2168 c-11 -57 -29 -229 -24 -233 9 -10 37 116 41 188 4 63 -7
94 -17 45z"/>
<path d="M4846 2093 c-12 -12 -6 -33 9 -33 8 0 15 6 15 14 0 17 -14 28 -24 19z"/>
<path d="M5390 1930 c0 -5 5 -10 10 -10 6 0 10 5 10 10 0 6 -4 10 -10 10 -5 0
-10 -4 -10 -10z"/>
<path d="M5101 1878 c-21 -48 -35 -128 -24 -128 13 1 63 115 63 143 0 40 -19
33 -39 -15z"/>
<path d="M4501 1853 c-7 -16 -19 -49 -26 -75 -10 -39 -10 -48 0 -48 23 0 77
110 68 138 -8 21 -29 13 -42 -15z"/>
<path d="M5036 1691 c-18 -7 -46 -69 -46 -103 0 -10 6 -18 14 -18 15 0 26 21
26 51 0 10 4 19 9 19 15 0 41 30 41 46 0 15 -14 17 -44 5z"/>
<path d="M4420 1635 c-15 -18 -6 -45 15 -45 10 0 15 10 15 30 0 33 -11 38 -30
15z"/>
<path d="M4721 1523 c0 -6 -9 -13 -18 -16 -17 -4 -17 -4 0 -12 22 -9 30 -2 24
22 -3 10 -5 13 -6 6z"/>
<path d="M4967 1503 c-4 -3 -7 -15 -7 -25 0 -22 26 -24 34 -2 10 25 -10 45
-27 27z"/>
<path d="M5380 1376 c0 -9 5 -16 10 -16 6 0 10 4 10 9 0 6 -4 13 -10 16 -5 3
-10 -1 -10 -9z"/>
</g>
</svg>
